<?xml version="1.0" ?><svg id="Layer_1" fill="white" color="white" style="enable-background:new 0 0 65 65;" version="1.1" viewBox="0 0 65 65" xml:space="preserve" xmlns="http://www.w3.org/2000/svg" xmlns:xlink="http://www.w3.org/1999/xlink"><style type="text/css">
	.st0{fill:#FFFFFF;}
</style><g><path class="st0" d="M61.5,28.8c-0.4,0-0.8,0.3-0.8,0.8v16c0,0.4,0.3,0.8,0.8,0.8s0.8-0.3,0.8-0.8v-16   C62.3,29.1,61.9,28.8,61.5,28.8z"/><path class="st0" d="M61.5,22.8c-0.4,0-0.8,0.3-0.8,0.8v2c0,0.4,0.3,0.8,0.8,0.8s0.8-0.3,0.8-0.8v-2C62.3,23.1,61.9,22.8,61.5,22.8   z"/><path class="st0" d="M4.5,9.2c0.4,0,0.8-0.3,0.8-0.8v-7c0-0.4-0.3-0.8-0.8-0.8S3.8,1.1,3.8,1.5v7C3.8,8.9,4.1,9.2,4.5,9.2z"/><path class="st0" d="M4.5,14.2c0.4,0,0.8-0.3,0.8-0.8v-1c0-0.4-0.3-0.8-0.8-0.8s-0.8,0.3-0.8,0.8v1C3.8,13.9,4.1,14.2,4.5,14.2z"/><path class="st0" d="M7.3,45.5c0-0.4-0.3-0.8-0.8-0.8H5.3v-1.3c0-0.4-0.3-0.8-0.8-0.8s-0.8,0.3-0.8,0.8v1.3H2.5   c-0.4,0-0.8,0.3-0.8,0.8s0.3,0.8,0.8,0.8h1.3v1.3c0,0.4,0.3,0.8,0.8,0.8s0.8-0.3,0.8-0.8v-1.3h1.3C6.9,46.3,7.3,45.9,7.3,45.5z"/><path class="st0" d="M58.5,0.8h-39c-3.7,0-6.8,3-6.8,6.8v7c0,0.4,0.3,0.8,0.8,0.8s0.8-0.3,0.8-0.8v-7c0-2.9,2.4-5.3,5.3-5.3h1   c2.9,0,5.3,2.4,5.3,5.3v6c0,0.4,0.3,0.8,0.8,0.8h3c0.4,0,0.8-0.3,0.8-0.8s-0.3-0.8-0.8-0.8h-2.3V7.5c0-2.1-1-4-2.5-5.3h33.8   c3.1,0,4.3,2.7,4.3,5.3v5.3H33.5c-0.4,0-0.8,0.3-0.8,0.8s0.3,0.8,0.8,0.8h22.3v43.3c0,2.9-2.4,5.3-5.3,5.3c-2.9,0-5.3-2.4-5.3-5.3   v-6c0-0.4-0.3-0.8-0.8-0.8H14.3v-4.3c0-0.4-0.3-0.8-0.8-0.8s-0.8,0.3-0.8,0.8v4.3H7.5c-0.4,0-0.8,0.3-0.8,0.8v6   c0,3.7,3,6.8,6.8,6.8h37c3.7,0,6.8-3,6.8-6.8V14.3h6.3c0.4,0,0.8-0.3,0.8-0.8v-6C64.3,3.4,62,0.8,58.5,0.8z M13.5,62.8   c-2.9,0-5.3-2.4-5.3-5.3v-5.3h35.5v5.3c0,2.1,1,4,2.5,5.3H13.5z"/><path class="st0" d="M30.5,35.3h22c0.4,0,0.8-0.3,0.8-0.8s-0.3-0.8-0.8-0.8h-22c-0.4,0-0.8,0.3-0.8,0.8S30.1,35.3,30.5,35.3z"/><path class="st0" d="M29.8,29.5c0,0.4,0.3,0.8,0.8,0.8h22c0.4,0,0.8-0.3,0.8-0.8s-0.3-0.8-0.8-0.8h-22   C30.1,28.8,29.8,29.1,29.8,29.5z"/><path class="st0" d="M40.5,25.2h12c0.4,0,0.8-0.3,0.8-0.8s-0.3-0.8-0.8-0.8h-12c-0.4,0-0.8,0.3-0.8,0.8S40.1,25.2,40.5,25.2z"/><path class="st0" d="M40.5,20.2h12c0.4,0,0.8-0.3,0.8-0.8s-0.3-0.8-0.8-0.8h-12c-0.4,0-0.8,0.3-0.8,0.8S40.1,20.2,40.5,20.2z"/><path class="st0" d="M30.5,40.3h22c0.4,0,0.8-0.3,0.8-0.8s-0.3-0.8-0.8-0.8h-22c-0.4,0-0.8,0.3-0.8,0.8S30.1,40.3,30.5,40.3z"/><path class="st0" d="M30.5,45.3h22c0.4,0,0.8-0.3,0.8-0.8s-0.3-0.8-0.8-0.8h-22c-0.4,0-0.8,0.3-0.8,0.8S30.1,45.3,30.5,45.3z"/><path class="st0" d="M13.5,43.3c3.5,0,6.7-1.4,9-3.7c0,0,0,0,0,0s0,0,0,0c2.3-2.3,3.7-5.5,3.7-9c0-7-5.7-12.8-12.8-12.8   S0.8,23.5,0.8,30.5S6.5,43.3,13.5,43.3z M22,37.9l-6.6-6.6h9.4C24.5,33.8,23.5,36.1,22,37.9z M24.7,29.8H14.3V19.3   C19.9,19.7,24.3,24.1,24.7,29.8z M12.8,19.3v11.2c0,0.1,0,0.2,0.1,0.3c0,0.1,0.1,0.2,0.2,0.2l7.9,7.9c-2,1.7-4.6,2.8-7.4,2.8   c-6.2,0-11.3-5-11.3-11.3C2.3,24.6,6.9,19.7,12.8,19.3z"/><path class="st0" d="M31.5,14.2c0.2,0,0.4-0.1,0.5-0.2c0.1-0.1,0.2-0.3,0.2-0.5c0-0.2-0.1-0.4-0.2-0.5c-0.1-0.1-0.1-0.1-0.3-0.2   c-0.2-0.1-0.4-0.1-0.6,0c-0.1,0-0.2,0.1-0.2,0.2c-0.1,0.1-0.1,0.2-0.2,0.3c0,0.1-0.1,0.2-0.1,0.3c0,0.1,0,0.2,0,0.3   c0,0.1,0.1,0.2,0.2,0.2C31.1,14.2,31.3,14.2,31.5,14.2z"/></g></svg>